<?xml version="1.0" encoding="UTF-8" standalone="no"?>
<!DOCTYPE svg  PUBLIC '-//W3C//DTD SVG 1.1//EN'  'http://www.w3.org/Graphics/SVG/1.1/DTD/svg11.dtd'>
<svg xmlns="http://www.w3.org/2000/svg" version="1.1">
<defs>
<font id="MS-PGothic" horiz-adv-x="128" vert-adv-y="256">
<font-face unicode-range="U+000D-2A6B2" underline-thickness="19" units-per-em="256" underline-position="-44" panose-1="2 11 6 0 7 2 5 8 2 4" cap-height="174" x-height="115" bbox="-31 -35 220 220" descent="-36" ascent="220" font-weight="400" font-family="MS PGothic"/>
<missing-glyph/>
<glyph horiz-adv-x="78" glyph-name="space" unicode=" "/>
<glyph horiz-adv-x="56" glyph-name="exclam" unicode="!" d="M17 25h22v-22h-22v22zM14 174h28l-6 -113h-16z"/>
<glyph glyph-name="quotedbl" unicode='&quot;' d="M115 205l-35 -50h-18l25 50h28zM14 155l25 50h28l-35 -50h-18z"/>
<glyph glyph-name="numbersign" unicode="#" d="M51 112l-6 -42h33l6 42h-33zM87 131l6 45h16l-6 -45h19v-19h-22l-6 -42h28v-19h-30l-7 -46h-16l7 46h-33l-7 -46h-16l7 46h-20v19h22l6 42h-28v19h31l6 45h16l-6 -45h33z"/>
<glyph glyph-name="dollar" unicode="$" d="M79 74q-3 3 -7 6v-57q7 0 11 4q7 7 7 18q0 18 -11 29zM47 155q-6 -6 -6 -17t8 -19q5 -5 9 -7v48q-6 0 -11 -5zM58 198h14v-19q15 -2 25 -12q13 -13 13 -35h-22q0 16 -6 22q-5 5 -10 6v-56q17 -10 24 -17q16 -16 16 -39q0 -21 -12 -33q-11 -11 -28 -11v-25h-14v25 q-16 0 -29 13t-13 44h23q0 -26 6 -32t13 -6v64q-17 9 -25 17q-13 13 -13 34q0 17 12 29q11 11 26 12v19z"/>
<glyph glyph-name="percent" unicode="%" d="M90 75q-4 -4 -4 -15v-26q0 -11 4 -15q2 -2 5 -2t5 2q4 4 4 15v26q0 11 -4 15q-2 2 -5 2t-5 -2zM22 5l76 172l7 -3l-76 -173zM70 60q0 17 9 26q6 6 16 6t16 -6q9 -9 9 -26v-26q0 -17 -9 -26q-6 -6 -16 -6t-16 6q-9 9 -9 26v26zM16 93q-9 9 -9 26v26q0 17 9 26q6 6 16 6 t16 -6q9 -9 9 -26v-26q0 -17 -9 -26q-6 -6 -16 -6t-16 6zM37 104q4 4 4 15v26q0 11 -4 15q-2 2 -5 2t-5 -2q-4 -4 -4 -15v-26q0 -11 4 -15q2 -2 5 -2t5 2z"/>
<glyph horiz-adv-x="152" glyph-name="ampersand" unicode="&amp;" d="M31 47q0 -11 8 -19q9 -9 25 -9q23 0 36 12q-25 22 -48 53q-5 -3 -10 -8q-11 -11 -11 -29zM55 153q-6 -6 -6 -19q0 -12 10 -28q12 6 18 12q9 9 9 20q0 9 -6 15q-5 5 -13 5q-7 0 -12 -5zM41 164q12 12 27 12q17 0 27 -10q11 -11 11 -27q0 -18 -12 -30q-9 -9 -26 -17 q27 -36 44 -46q6 11 6 32h21q-1 -23 -11 -44q12 -8 22 -11l-8 -20q-7 2 -27 16q-19 -18 -51 -18q-27 0 -41 14t-14 32q0 21 16 37q7 7 18 14q-14 21 -14 37q0 17 12 29z"/>
<glyph horiz-adv-x="52" glyph-name="quotesingle" unicode="&apos;" d="M25 156h-10v22h23v-22l-13 -30h-10z"/>
<glyph horiz-adv-x="78" glyph-name="parenleft" unicode="(" d="M59 -20q-50 47 -50 109t50 109l11 -11q-46 -43 -46 -98t46 -98z"/>
<glyph horiz-adv-x="78" glyph-name="parenright" unicode=")" d="M7 187l11 11q50 -47 50 -109t-50 -109l-11 11q46 43 46 98t-46 98z"/>
<glyph glyph-name="asterisk" unicode="*" d="M72 105l41 26l10 -18l-43 -22l43 -22l-10 -18l-41 26l2 -51h-20l2 51l-41 -26l-10 18l43 22l-43 22l10 18l41 -26l-2 48h20z"/>
<glyph glyph-name="plus" unicode="+" d="M56 148h17v-49h49v-16h-49v-49h-17v49h-49v16h49v49z"/>
<glyph horiz-adv-x="52" glyph-name="comma" unicode="," d="M25 -24h-10l10 27h-10v22h23v-22z"/>
<glyph glyph-name="hyphen" unicode="-" d="M7 99h114v-16h-114v16z"/>
<glyph horiz-adv-x="52" glyph-name="period" unicode="." d="M15 25h23v-22h-23v22z"/>
<glyph glyph-name="slash" unicode="../../../../default.htm" d="M6 -2l106 189l10 -6l-106 -189z"/>
<glyph glyph-name="zero" unicode="0" d="M46 150q-13 -13 -13 -49v-23q0 -35 14 -49q8 -8 17 -8q10 0 18 8q13 13 13 49v23q0 36 -13 49q-8 8 -18 8t-18 -8zM9 99q0 44 20 64q14 14 35 14t35 -14q20 -20 20 -64v-20q0 -43 -20 -63q-14 -14 -35 -14t-35 14q-20 20 -20 63v20z"/>
<glyph glyph-name="one" unicode="1" d="M68 177h12v-173h-23v133h-30v12h9q14 0 22 8q9 9 10 20z"/>
<glyph glyph-name="two" unicode="2" d="M17 116q0 31 16 47q13 13 31 13q22 0 35 -13t13 -32q0 -24 -15 -42q-14 -17 -29 -33l-16 -18q-7 -8 -12 -16h75v-19h-102v17q2 10 17 28q25 27 41 45q17 18 17 38q0 12 -8 20q-6 6 -15 6q-8 0 -14 -6q-11 -11 -11 -35h-23z"/>
<glyph glyph-name="three" unicode="3" d="M17 125q0 23 15 38q13 13 32 13q22 0 35 -13q12 -12 12 -32t-10 -30q-7 -7 -15 -8q10 -3 17 -10q12 -12 12 -32q0 -22 -14 -36t-39 -14q-21 0 -35 14t-14 33v8h23v-7q0 -13 9 -22q7 -7 17 -7q13 0 21 8t8 25q0 14 -8 22t-18 8h-8v17h6q9 0 17 8t8 23q0 13 -8 21 q-6 6 -16 6q-9 0 -16 -7q-8 -8 -9 -26h-22z"/>
<glyph glyph-name="four" unicode="4" d="M76 139l-45 -73h45v73zM76 176h23v-110h21v-19h-21v-44h-23v44h-67v20z"/>
<glyph glyph-name="five" unicode="5" d="M25 174h86v-19h-67v-3q-1 -19 -3 -37q-1 -3 -1 -6q13 12 28 12q20 0 33 -13q14 -14 14 -41q0 -34 -18 -52q-14 -14 -35 -14q-20 0 -33 13t-16 39h23q2 -19 10 -27q6 -6 15 -6q12 0 19 7q11 11 11 37q0 25 -9 34q-6 6 -14 6q-12 0 -21 -9q-6 -6 -8 -9h-20q1 4 1 7l5 77v4z "/>
<glyph glyph-name="six" unicode="6" d="M50 92q-11 -11 -11 -30q0 -24 12 -36q7 -7 15 -7q9 0 15 6q9 9 9 35q0 23 -9 32q-7 7 -14 7q-10 0 -17 -7zM38 164q12 12 30 12q19 0 31 -12q13 -13 13 -33h-23q0 14 -6 20t-15 6t-15 -6q-16 -16 -16 -56q4 7 10 13q9 9 22 9q18 0 30 -12q15 -15 15 -45q0 -31 -16 -47 q-12 -12 -33 -12q-18 0 -33 15q-18 18 -18 69q0 55 24 79z"/>
<glyph glyph-name="seven" unicode="7" d="M17 174h95v-22l-48 -149h-22l48 152h-73v19z"/>
<glyph glyph-name="eight" unicode="8" d="M43 74q-8 -8 -8 -23t9 -24q8 -8 20 -8t20 8q9 9 9 24t-9 24q-7 7 -20 7t-21 -8zM47 151q-8 -8 -8 -23q0 -14 8 -22q7 -7 16 -7q12 0 18 6q8 8 8 23t-8 23q-7 7 -17 7t-17 -7zM31 164q12 12 33 12t34 -13t13 -35q0 -17 -12 -29q-5 -5 -12 -7v-2q9 -2 17 -10q12 -12 12 -32 t-14 -34q-13 -13 -38 -13t-38 13q-14 14 -14 34t12 32q8 8 17 10v2q-6 2 -13 9q-11 11 -11 27q0 22 14 36z"/>
<glyph glyph-name="nine" unicode="9" d="M48 152q-10 -10 -10 -35q0 -20 8 -28q7 -7 14 -7q12 0 18 6q11 11 11 27q0 25 -11 36q-7 7 -16 7q-8 0 -14 -6zM32 165q11 11 30 11q18 0 31 -13q21 -21 21 -73q0 -53 -22 -75q-14 -14 -33 -14t-30 11q-13 13 -13 34h23q-1 -13 8 -22q4 -4 12 -4q9 0 16 7q16 16 16 59 q-4 -6 -9 -11q-11 -11 -27 -11q-15 0 -25 10q-16 16 -16 43q0 30 18 48z"/>
<glyph horiz-adv-x="52" glyph-name="colon" unicode=":" d="M15 25h23v-22h-23v22zM15 117h23v-22h-23v22z"/>
<glyph horiz-adv-x="52" glyph-name="semicolon" unicode=";" d="M15 25h23v-22l-13 -27h-10l10 27h-10v22zM15 117h23v-22h-23v22z"/>
<glyph glyph-name="less" unicode="&lt;" d="M10 89l99 92l10 -10l-89 -82l89 -82l-10 -10z"/>
<glyph glyph-name="equal" unicode="=" d="M7 69h114v-16h-114v16zM7 130h114v-16h-114v16z"/>
<glyph glyph-name="greater" unicode="&gt;" d="M8 171l10 10l99 -92l-99 -92l-10 10l89 82z"/>
<glyph horiz-adv-x="116" glyph-name="question" unicode="?" d="M46 27h22v-24h-22v24zM10 121q0 26 17 43q12 12 32 12q22 0 34 -12q13 -13 13 -33q0 -17 -12 -29l-19 -19q-9 -9 -9 -27h-18q0 22 7 33q5 8 19 22q8 8 8 19q0 14 -7 21q-6 6 -17 6q-9 0 -15 -6q-10 -10 -10 -30h-23z"/>
<glyph horiz-adv-x="171" glyph-name="at" unicode="@" d="M78 121q-15 -15 -15 -46q0 -12 5 -17q4 -4 9 -4q8 0 13 5t6 8l11 53q-6 9 -15 9q-6 0 -14 -8zM36 155q21 21 52 21q32 0 52 -20q21 -21 21 -54q0 -35 -17 -52q-11 -11 -24 -11q-10 0 -15 5t-7 11q-12 -16 -27 -16q-12 0 -20 8q-11 11 -11 28q0 32 21 53q13 13 29 13 q12 0 19 -11l3 11h19l-14 -73q-1 -10 2 -13q2 -2 4 -2q9 0 14 5q14 14 14 44q0 31 -17 48q-18 18 -45 18t-46 -19q-23 -23 -23 -65q0 -35 22 -57q18 -18 44 -18q28 0 47 16l6 -6q-20 -18 -53 -18q-31 0 -51 20q-25 25 -25 64q0 44 26 70z"/>
<glyph horiz-adv-x="162" glyph-name="A" unicode="A" d="M81 143l-26 -69h52zM3 3l68 173h20l68 -173h-24l-21 52h-66l-21 -52h-24z"/>
<glyph horiz-adv-x="163" glyph-name="B" unicode="B" d="M40 83v-61h51q15 0 23 8q9 9 9 22q0 14 -8 22q-9 9 -24 9h-51zM40 155v-53h54q10 0 17 7q8 8 8 21q0 11 -8 19q-6 6 -15 6h-56zM17 174h80q20 0 33 -13q12 -12 12 -32q0 -16 -11 -27q-6 -6 -15 -9q12 -4 19 -11q12 -12 12 -30q0 -22 -15 -37q-12 -12 -36 -12h-79v171z "/>
<glyph horiz-adv-x="170" glyph-name="C" unicode="C" d="M39 157q19 19 49 19t47 -17q18 -18 19 -46h-24q-2 21 -13 32q-12 12 -29 12q-18 0 -32 -14q-18 -18 -18 -55t18 -55q13 -13 32 -13q20 0 31 11q14 14 14 40h24q-1 -34 -20 -53q-17 -17 -49 -17q-30 0 -49 19q-25 25 -25 68q0 44 25 69z"/>
<glyph horiz-adv-x="166" glyph-name="D" unicode="D" d="M40 155v-133h36q19 0 31 12q19 19 19 53q0 36 -18 54q-14 14 -32 14h-36zM17 174h60q30 0 51 -21q22 -22 22 -66q0 -42 -23 -65q-19 -19 -50 -19h-60v171z"/>
<glyph horiz-adv-x="145" glyph-name="E" unicode="E" d="M17 174h110v-19h-87v-53h81v-19h-81v-61h92v-19h-115v171z"/>
<glyph horiz-adv-x="141" glyph-name="F" unicode="F" d="M20 174h115v-19h-92v-56h72v-19h-72v-77h-23v171z"/>
<glyph horiz-adv-x="174" glyph-name="G" unicode="G" d="M39 155q21 21 51 21t49 -19q16 -16 17 -39h-24q-1 17 -12 28t-30 11t-32 -13q-18 -18 -18 -56q0 -36 19 -55q13 -13 36 -13q17 0 28 11t13 23v16h-29v19h52v-88h-17l-6 17q-17 -17 -43 -17q-32 0 -52 20q-25 25 -25 67q0 44 23 67z"/>
<glyph horiz-adv-x="164" glyph-name="H" unicode="H" d="M18 174h23v-72h82v72h23v-171h-23v80h-82v-80h-23v171z"/>
<glyph horiz-adv-x="63" glyph-name="I" unicode="I" d="M9 174h45v-22h-11v-127h11v-22h-45v22h11v127h-11v22z"/>
<glyph horiz-adv-x="139" glyph-name="J" unicode="J" d="M98 174h23v-123q0 -23 -14 -37q-13 -13 -40 -13t-40 13q-17 17 -17 55h23q0 -29 10 -39q8 -8 23 -8q16 0 23 7q9 9 9 23v122z"/>
<glyph horiz-adv-x="153" glyph-name="K" unicode="K" d="M18 174h23v-78l78 78h29l-68 -68l69 -103h-27l-58 87l-23 -23v-64h-23v171z"/>
<glyph horiz-adv-x="138" glyph-name="L" unicode="L" d="M20 174h23v-152h92v-19h-115v171z"/>
<glyph horiz-adv-x="190" glyph-name="M" unicode="M" d="M18 174h31l46 -133l46 133h31v-171h-23v131l-46 -131h-16l-46 131v-131h-23v171z"/>
<glyph horiz-adv-x="164" glyph-name="N" unicode="N" d="M18 174h25l80 -135v135h23v-171h-25l-80 135v-135h-23v171z"/>
<glyph horiz-adv-x="181" glyph-name="O" unicode="O" d="M56 142q-17 -17 -17 -53t17 -53q15 -15 34 -15t34 15q17 17 17 53t-17 53q-15 15 -34 15t-34 -15zM39 155q21 21 51 21t51 -21q24 -24 24 -66t-24 -66q-21 -21 -51 -21t-51 21q-24 24 -24 66t24 66z"/>
<glyph horiz-adv-x="158" glyph-name="P" unicode="P" d="M39 155v-66h52q14 0 22 8q9 9 9 24q0 17 -8 25q-9 9 -23 9h-52zM16 174h80q22 0 36 -14t14 -39t-13 -38t-37 -13h-57v-67h-23v171z"/>
<glyph horiz-adv-x="181" glyph-name="Q" unicode="Q" d="M39 154q21 21 51 21t51 -21q24 -24 24 -66q0 -38 -21 -64l16 -19l-15 -14l-17 20q-19 -10 -38 -10q-30 0 -51 21q-24 24 -24 66t24 66zM114 27l-22 27l15 13l22 -26q12 16 12 47q0 36 -17 53q-15 15 -34 15t-34 -15q-17 -17 -17 -53t17 -53q15 -15 34 -15q15 0 24 7z"/>
<glyph horiz-adv-x="160" glyph-name="R" unicode="R" d="M44 156v-59h59q10 0 17 7t7 22q0 14 -8 22t-19 8h-56zM21 175h84q20 0 33 -13t13 -36t-13 -36q-7 -7 -20 -9l39 -77h-25l-36 74h-52v-74h-23v171z"/>
<glyph horiz-adv-x="154" glyph-name="S" unicode="S" d="M33 162q14 14 43 14q31 0 47 -16q14 -14 14 -33h-23q0 12 -8 20q-9 9 -28 9q-21 0 -29 -8q-7 -7 -7 -16t4 -13q5 -5 18 -10q23 -10 52 -23q8 -3 15 -10q11 -11 11 -26q0 -20 -14 -34q-15 -15 -49 -15q-33 0 -51 18q-13 13 -13 38h23q0 -18 8 -26q11 -11 34 -11 q21 0 31 10q8 8 8 16q0 9 -6 15q-5 5 -16 10q-10 5 -26 12q-18 8 -29 13q-8 3 -14 9q-9 9 -9 24q0 19 14 33z"/>
<glyph horiz-adv-x="151" glyph-name="T" unicode="T" d="M7 174h137v-19h-57v-152h-23v152h-57v19z"/>
<glyph horiz-adv-x="164" glyph-name="U" unicode="U" d="M18 174h23v-120q0 -14 9 -23q11 -11 32 -11t32 11q9 9 9 23v120h23v-121q0 -22 -14 -36q-16 -16 -50 -16t-50 16q-14 14 -14 36v121z"/>
<glyph horiz-adv-x="162" glyph-name="V" unicode="V" d="M4 175h24l53 -139l53 139h24l-68 -173h-18z"/>
<glyph horiz-adv-x="190" glyph-name="W" unicode="W" d="M2 174h22l27 -127l33 127h22l33 -127l27 127h22l-38 -173h-20l-35 139l-35 -139h-20z"/>
<glyph horiz-adv-x="154" glyph-name="X" unicode="X" d="M65 92l-54 82h26l40 -63l40 63h26l-54 -82l59 -89h-26l-45 70l-45 -70h-26z"/>
<glyph horiz-adv-x="151" glyph-name="Y" unicode="Y" d="M2 174h24l49 -78l49 78h24l-61 -95v-76h-23v76z"/>
<glyph horiz-adv-x="145" glyph-name="Z" unicode="Z" d="M15 174h116v-20l-98 -132h101v-19h-125v20l98 132h-92v19z"/>
<glyph horiz-adv-x="86" glyph-name="bracketleft" unicode="[" d="M20 200h63v-16h-46v-191h46v-16h-63v223z"/>
<glyph horiz-adv-x="129" glyph-name="backslash" unicode="\" d="M3 174h25l36 -74l36 74h25l-45 -85h36v-16h-42v-14h42v-16h-42v-40h-20v40h-42v16h42v14h-42v16h36z"/>
<glyph horiz-adv-x="86" glyph-name="bracketright" unicode="]" d="M2 200h63v-223h-63v16h46v191h-46v16z"/>
<glyph horiz-adv-x="106" glyph-name="asciicircum" unicode="^" d="M5 163l36 41h24l36 -41h-19l-29 25l-29 -25h-19z"/>
<glyph horiz-adv-x="78" glyph-name="underscore" unicode="_" d="M0 -13h77v-12h-77v12z"/>
<glyph horiz-adv-x="106" glyph-name="grave" unicode="`" d="M15 204h30l29 -46h-16z"/>
<glyph horiz-adv-x="122" glyph-name="a" unicode="a" d="M85 60q-6 -2 -11 -3q-17 -4 -26 -6q-8 -2 -12 -6q-5 -5 -5 -11q0 -7 5 -12q3 -3 13 -3q17 0 28 11q7 7 8 10v20zM27 106q11 11 32 11q25 0 36 -11q10 -10 10 -23v-63q0 -11 8 -17h-24q-4 4 -4 13q-15 -15 -38 -15q-19 0 -29 10q-9 9 -9 21q0 14 9 23q10 10 28 13 q12 2 21 5q13 3 18 6q0 8 -6 14t-17 6q-14 0 -20 -6q-4 -4 -6 -11h-22q3 14 13 24z"/>
<glyph horiz-adv-x="127" glyph-name="b" unicode="b" d="M42 90q-9 -9 -9 -25v-12q0 -15 10 -25q9 -9 21 -9q10 0 17 7q11 11 11 33q0 23 -10 33q-8 8 -18 8q-12 0 -22 -10zM13 174h20v-72q13 16 32 16q20 0 33 -13q16 -16 16 -46q0 -29 -16 -45q-13 -13 -34 -13q-22 0 -31 16v-14h-20v171z"/>
<glyph glyph-name="c" unicode="c" d="M28 101q15 15 37 15q24 0 36 -12q11 -11 13 -27h-22q-1 8 -8 15q-6 6 -18 6t-20 -8q-12 -12 -12 -33q0 -20 11 -31q8 -8 20 -8q14 0 22 8t8 21h22q-1 -21 -14 -34t-38 -13q-21 0 -35 14q-18 18 -18 44q0 27 16 43z"/>
<glyph horiz-adv-x="127" glyph-name="d" unicode="d" d="M45 92q-10 -10 -10 -33q0 -22 11 -33q7 -7 17 -7q12 0 20 8q11 11 11 32t-12 33q-8 8 -19 8q-10 0 -18 -8zM94 174h20v-171h-20v14q-11 -16 -30 -16q-21 0 -33 12q-18 18 -18 46q0 30 16 46q13 13 31 13q22 0 34 -17v73z"/>
<glyph glyph-name="e" unicode="e" d="M44 92q-7 -7 -9 -17h57q0 10 -8 18q-7 7 -20 7q-12 0 -20 -8zM29 103q14 14 36 14q21 0 36 -15q14 -14 14 -43h-81q0 -21 10 -31q9 -9 23 -9t20 6q7 7 7 16h22q-4 -18 -13 -27q-13 -13 -36 -13q-24 0 -39 15q-16 16 -16 43t17 44z"/>
<glyph horiz-adv-x="78" glyph-name="f" unicode="f" d="M44 115h34v-16h-34v-96h-20v96h-24v16h24v28q0 14 9 23q10 10 27 10q13 0 27 -5v-20q-14 7 -23 7q-11 0 -16 -5q-4 -4 -4 -10v-28z"/>
<glyph horiz-adv-x="118" glyph-name="g" unicode="g" d="M40 9q-7 -2 -10 -5q-4 -4 -4 -9t4 -9q6 -6 26 -6q27 0 34 7q4 4 4 8t-3 7q-4 4 -14 4q-24 1 -37 3zM44 95q-7 -7 -7 -17t6 -16t14 -6q9 0 14 5q6 6 6 17q0 10 -7 17q-5 5 -14 5q-7 0 -12 -5zM28 106q11 11 28 11q16 0 28 -10q10 10 24 10h9v-19q-7 3 -14 3q-6 0 -13 -2 q7 -9 7 -21q0 -18 -11 -29q-10 -10 -29 -10q-10 0 -21 5q-5 -4 -5 -8q0 -3 2 -5q5 -5 23 -6q16 -1 34 -2q10 -2 15 -7q8 -8 8 -19q0 -12 -8 -20q-11 -11 -48 -11q-31 0 -42 11q-7 7 -7 17q0 7 5 12q4 4 12 8q-3 2 -7 6q-5 5 -5 13q0 10 15 19q-11 11 -11 26q0 17 11 28z"/>
<glyph glyph-name="h" unicode="h" d="M15 174h20v-79q17 22 37 22q21 0 31 -10t10 -24v-80h-20v75q0 11 -7 18q-5 5 -14 5q-11 0 -20 -9q-11 -11 -17 -31v-58h-20v171z"/>
<glyph horiz-adv-x="54" glyph-name="i" unicode="i" d="M17 115h20v-112h-20v112zM17 173h20v-26h-20v26z"/>
<glyph horiz-adv-x="56" glyph-name="j" unicode="j" d="M18 115h20v-116q0 -13 -9 -22q-11 -11 -32 -11q-15 0 -28 6v19q17 -7 28 -7t17 6q4 4 4 10v115zM18 173h20v-26h-20v26z"/>
<glyph horiz-adv-x="118" glyph-name="k" unicode="k" d="M13 174h20v-108l49 49h25l-38 -38l46 -74h-21l-38 61l-23 -23v-38h-20v171z"/>
<glyph horiz-adv-x="54" glyph-name="l" unicode="l" d="M17 174h20v-171h-20v171z"/>
<glyph horiz-adv-x="188" glyph-name="m" unicode="m" d="M35 3h-20v112h20v-17q13 19 30 19q19 0 29 -10q5 -5 8 -11q13 21 36 21q16 0 25 -9q10 -10 10 -22v-83h-20v79q0 6 -4 10q-6 6 -14 6q-14 0 -23 -9q-8 -8 -8 -15v-71h-20v78q0 6 -6 12q-5 5 -15 5q-11 0 -19 -8q-9 -9 -9 -17v-70z"/>
<glyph glyph-name="n" unicode="n" d="M35 3h-20v112h20v-20q18 22 38 22t32 -12q8 -8 8 -19v-83h-20v77q0 9 -6 15t-17 6q-10 0 -20 -10q-15 -15 -15 -32v-56z"/>
<glyph horiz-adv-x="130" glyph-name="o" unicode="o" d="M45 91q-12 -12 -12 -32t11 -31q9 -9 21 -9t21 9q11 11 11 31t-12 32q-8 8 -20 8t-20 -8zM28 102q15 15 37 15t37 -15q17 -17 17 -43t-17 -43q-15 -15 -37 -15t-37 15q-17 17 -17 43t17 43z"/>
<glyph horiz-adv-x="127" glyph-name="p" unicode="p" d="M43 90q-10 -10 -10 -24v-14q0 -14 11 -25q9 -9 20 -9q10 0 17 7q11 11 11 34q0 22 -10 32q-8 8 -18 8q-12 0 -21 -9zM33 -34h-20v149h20v-13q12 15 31 15q21 0 34 -13q16 -16 16 -45q0 -30 -16 -46q-13 -13 -34 -13t-31 16v-50z"/>
<glyph horiz-adv-x="127" glyph-name="q" unicode="q" d="M45 91q-10 -10 -10 -32q0 -23 11 -34q7 -7 17 -7q11 0 19 8q12 12 12 27v13q0 15 -10 25q-8 8 -21 8q-10 0 -18 -8zM29 104q13 13 31 13q22 0 34 -15v13h20v-149h-20v51q-13 -17 -35 -17q-17 0 -30 13q-16 16 -16 46q0 29 16 45z"/>
<glyph horiz-adv-x="89" glyph-name="r" unicode="r" d="M88 117v-22q-4 1 -11 1q-15 0 -28 -13q-11 -11 -15 -23v-57h-20v112h20v-28q5 8 11 14q16 16 43 16z"/>
<glyph horiz-adv-x="118" glyph-name="s" unicode="s" d="M24 105q12 12 34 12q24 0 35 -11q10 -10 10 -22h-20q-1 7 -4 10q-6 6 -22 6q-10 0 -16 -6q-5 -5 -5 -11q0 -4 3 -7q4 -4 25 -9q13 -3 22 -6q8 -3 12 -7q8 -8 8 -19q0 -12 -10 -22q-12 -12 -37 -12t-37 12q-10 10 -10 25h20q1 -9 5 -13q7 -7 21 -7q17 0 23 6q4 4 4 10 q0 4 -5 9q-4 4 -13 6q-18 4 -27 7q-11 3 -16 8q-9 9 -9 19q0 13 9 22z"/>
<glyph horiz-adv-x="90" glyph-name="t" unicode="t" d="M24 154h20v-39h34v-16h-34v-65q0 -6 5 -11q4 -4 13 -4q14 0 25 7v-19q-11 -6 -24 -6q-20 0 -29 9q-10 10 -10 22v67h-24v16h24v39z"/>
<glyph glyph-name="u" unicode="u" d="M15 115h20v-75q0 -12 6 -18q5 -5 14 -5q13 0 23 10q15 15 15 31v57h20v-112h-20v20q-16 -22 -39 -22q-21 0 -30 9t-9 23v82z"/>
<glyph horiz-adv-x="122" glyph-name="v" unicode="v" d="M3 115h22l36 -89l36 89h22l-48 -114h-20z"/>
<glyph horiz-adv-x="166" glyph-name="w" unicode="w" d="M4 115h21l23 -84l24 84h22l24 -84l23 84h21l-34 -114h-19l-26 91l-26 -91h-19z"/>
<glyph horiz-adv-x="118" glyph-name="x" unicode="x" d="M9 115h23l27 -40l27 40h23l-38 -55l41 -57h-23l-30 42l-30 -42h-23l41 57z"/>
<glyph horiz-adv-x="122" glyph-name="y" unicode="y" d="M2 116h22l36 -89l36 89h22l-50 -120q-6 -15 -12 -21q-8 -8 -20 -8q-14 0 -18 4v19q8 -4 17 -4q5 0 9 4t6 11z"/>
<glyph horiz-adv-x="117" glyph-name="z" unicode="z" d="M14 115h88v-17l-68 -79h73v-16h-97v17l68 79h-64v16z"/>
<glyph horiz-adv-x="60" glyph-name="braceleft" unicode="{" d="M37 200h20v-12h-12q-4 0 -6 -2t-2 -7v-72q0 -11 -8 -19q8 -8 8 -21v-69q0 -4 2 -6q3 -3 6 -3h12v-12h-20q-8 0 -14 6t-6 15v74q0 3 -3 6t-10 3v14q7 0 10 3t3 6v75q0 9 6 15t14 6z"/>
<glyph horiz-adv-x="60" glyph-name="bar" unicode="|" d="M20 219h20v-254h-20v254z"/>
<glyph horiz-adv-x="60" glyph-name="braceright" unicode="}" d="M3 -23v12h12q3 0 6 3q2 2 2 6v69q0 13 8 21q-8 8 -8 19v72q0 5 -2 7t-6 2h-12v12h20q8 0 14 -6t6 -15v-75q0 -3 3 -6t10 -3v-14q-7 0 -10 -3t-3 -6v-74q0 -9 -6 -15t-14 -6h-20z"/>
<glyph horiz-adv-x="106" glyph-name="asciitilde" unicode="~" d="M92 181q-8 -12 -19 -12q-8 0 -23 15q-12 11 -19 11q-9 0 -13 -9q-5 -10 -6 -14l-10 11q4 12 11 22q7 11 17 11t22 -12q14 -13 23 -13q6 0 13 11q3 5 6 13l10 -13q-6 -12 -12 -21z"/>
<glyph horiz-adv-x="78" glyph-name="uni00A0" unicode=" "/>
<glyph horiz-adv-x="56" glyph-name="exclamdown" unicode="¡" d="M39 152h-22v22h22v-22zM42 3h-28l6 113h16z"/>
<glyph glyph-name="cent" unicode="¢" d="M114 133l-15 -21q13 -13 15 -29h-22q-1 8 -5 11l-42 -59q8 -11 20 -11q14 0 22 8t8 21h22q-1 -21 -14 -34t-38 -13q-21 0 -34 13l-14 -18l-10 8l15 19l-5 12q-5 11 -5 24q0 27 16 43q15 15 37 15q13 0 23 -3l15 22zM46 96q-12 -12 -12 -33q0 -10 3 -18l40 57q-5 2 -11 2 q-12 0 -20 -8z"/>
<glyph horiz-adv-x="171" glyph-name="sterling" unicode="£" d="M33 42q-3 -3 -3 -10q0 -6 3 -9q4 -5 14 -5q7 0 12 5q4 6 3 17q-9 6 -19 6q-7 0 -10 -4zM130 160q13 -15 15 -33h-24q-1 11 -11 23q-6 7 -23 7t-26 -10q-5 -6 -5 -19q0 -9 5 -23h48v-12h-42q13 -17 17 -43q22 -28 38 -28q7 0 10 3q5 6 5 26v13l21 -5q0 -36 -12 -50 q-7 -8 -23 -8q-23 0 -43 25q-7 -26 -31 -26q-21 0 -31 12q-6 8 -6 19q0 16 6 24q10 11 22 11t20 -4q-5 18 -15 31h-34v12h28q-5 11 -5 24q0 18 13 33q13 14 42 14q27 0 41 -16z"/>
<glyph horiz-adv-x="131" glyph-name="currency" unicode="¤" d="M25 52l-14 -14l-6 6l14 14q-11 13 -11 34q0 20 11 34l-13 13l6 6l13 -13q18 16 39 16t39 -16l15 15l6 -6l-15 -15q11 -14 11 -34q0 -21 -11 -34l15 -15l-6 -6l-15 15q-18 -16 -39 -16t-39 16zM99 57q14 14 14 35t-14 35t-35 14t-35 -14t-14 -35t14 -35t35 -14t35 14z"/>
<glyph horiz-adv-x="151" glyph-name="yen" unicode="¥" d="M2 174h24l49 -78l49 78h24l-49 -76h33v-19h-45v-19h45v-19h-45v-38h-23v38h-45v19h45v19h-45v19h32z"/>
<glyph horiz-adv-x="58" glyph-name="brokenbar" unicode="¦" d="M20 79h17v-114h-17v114zM20 106v114h17v-114h-17z"/>
<glyph horiz-adv-x="256" glyph-name="section" unicode="§" d="M145 50q11 9 11 20t-11 17q-8 4 -33 12q-11 -7 -11 -18q0 -8 6 -14q4 -4 14 -9t24 -8zM90 163q12 12 38 12t38 -12q8 -8 12 -22h-24q-2 5 -6 9q-6 6 -20 6q-13 0 -19 -6t-6 -14q0 -10 13 -16q10 -5 41 -16q21 -8 21 -29q0 -19 -15 -32q14 -8 14 -28q0 -15 -11 -26 q-14 -14 -38 -14q-27 0 -39 12q-9 9 -11 23h24q2 -5 6 -9q5 -5 20 -5t21 6q5 5 5 13q0 12 -16 17q-29 9 -42 16q-17 9 -17 30q0 19 16 29l-5 4q-10 8 -10 25t10 27z"/>
<glyph vert-adv-y="128" glyph-name="dieresis" unicode="¨" d="M79 204h28v-28h-28v28zM18 204h28v-28h-28v28z"/>
<glyph horiz-adv-x="171" glyph-name="copyright" unicode="©" d="M85 13q-33 0 -56 23q-22 22 -22 55t22 55q23 23 56 23t56 -23q22 -22 22 -55t-22 -55q-23 -23 -56 -23zM136 41q20 20 20 50t-20 50q-21 21 -51 21t-51 -21q-20 -20 -20 -50t20 -50q21 -21 51 -21t51 21zM53 136q12 12 32 12q19 0 31 -11q11 -12 12 -30h-16q-1 14 -8 21 q-8 8 -19 8q-12 0 -21 -9q-12 -12 -12 -36q0 -25 12 -37q9 -8 21 -8q13 0 20 7q9 9 9 26h16q-1 -22 -13 -34q-11 -12 -32 -12q-20 0 -32 13q-16 16 -16 45q0 28 16 45z"/>
<glyph horiz-adv-x="91" glyph-name="ordfeminine" unicode="ª" d="M59 141q-3 -1 -7 -2q-11 -3 -17 -4q-5 -1 -8 -4t-3 -7q0 -5 3 -8q2 -2 9 -2q11 0 18 7q5 5 5 7v13zM21 171q8 7 21 7q17 0 24 -7q7 -6 7 -15v-41q0 -8 5 -11h-17q-2 2 -2 8q-9 -10 -24 -10q-13 0 -19 7q-6 6 -6 14q0 9 6 15t18 8q8 1 14 3q7 2 11 4q0 6 -4 10t-11 4 q-9 0 -13 -4q-2 -3 -4 -8h-14q2 10 8 16z"/>
<glyph horiz-adv-x="171" glyph-name="guillemotleft" unicode="«" d="M82 92l82 -82l-10 -10l-92 92l92 92l10 -10zM99 184l10 -10l-82 -82l82 -82l-10 -10l-92 92z"/>
<glyph horiz-adv-x="164" glyph-name="logicalnot" unicode="¬" d="M142 63h-14v48h-121v16h135v-64z"/>
<glyph horiz-adv-x="129" glyph-name="uni00AD" unicode="­" d="M121 99v-16h-114v16h114z"/>
<glyph horiz-adv-x="171" glyph-name="registered" unicode="®" d="M85 162q-30 0 -51 -21q-20 -20 -20 -50t20 -50q21 -21 51 -21t51 21q20 20 20 50t-20 50q-21 21 -51 21zM163 91q0 -33 -22 -55q-23 -23 -56 -23t-56 23q-22 22 -22 55t22 55q23 23 56 23t56 -23q22 -22 22 -55zM60 134v-38h37q7 1 11 5q5 5 5 15q0 8 -5 13t-12 5h-36z M46 146h52q13 0 21 -8q9 -10 9 -22q0 -14 -9 -24q-4 -4 -12 -6l25 -47h-16l-23 45h-33v-45h-14v107z"/>
<glyph horiz-adv-x="171" glyph-name="macron" unicode="¯" d="M25 204h120v-12h-120v12z"/>
<glyph horiz-adv-x="256" glyph-name="degree" unicode="°" d="M64 172q0 7 -6 13t-13 6t-13 -6t-6 -13t6 -13t13 -6t13 6t6 13zM77 172q0 -14 -9 -23t-23 -9t-23 9t-9 23t9 23t23 9t23 -9t9 -23z"/>
<glyph horiz-adv-x="256" glyph-name="plusminus" unicode="±" d="M34 25h186v-19h-186v19zM117 169h20v-54h83v-19h-83v-54h-20v54h-83v19h83v54z"/>
<glyph horiz-adv-x="61" glyph-name="uni00B2" unicode="²" d="M9 148q0 14 8 22q6 6 16 6q9 0 14 -5q6 -6 6 -15q0 -12 -8 -18q-14 -14 -19 -22h25v-12h-43v8q10 15 24 29q9 7 9 15q0 4 -4 8q-2 2 -5 2t-6 -3q-6 -6 -5 -15h-12z"/>
<glyph horiz-adv-x="61" glyph-name="uni00B3" unicode="³" d="M8 155q1 10 6 15t15 5t15 -5t5 -12t-4 -12q-2 -3 -7 -5q4 0 8 -4q5 -4 5 -12q0 -9 -6 -15t-17 -6q-10 0 -15 5q-6 6 -6 13v4h10v-3q0 -4 3 -7t8 -3q6 0 9 3t3 9q0 5 -3 8q-4 4 -8 4h-4v7h3q4 0 8 4q3 3 3 9q0 4 -3 7t-7 3q-5 0 -8 -3q-2 -2 -3 -9h-10z"/>
<glyph vert-adv-y="128" glyph-name="acute" unicode="´" d="M26 160l38 44h36l-51 -44h-23z"/>
<glyph horiz-adv-x="129" glyph-name="mu" unicode="µ" d="M35 115v-76q5 -22 20 -22q13 0 23 10q15 15 15 31v57h20v-112h-20v20q-16 -22 -39 -22q-12 0 -19 7v-41h-20v148h20z"/>
<glyph glyph-name="paragraph" unicode="¶" d="M18 115q-13 13 -13 38q0 27 13 40q14 14 35 14h55v-16h-6v-212h-17v212h-22v-212h-17v124q-17 1 -28 12z"/>
<glyph horiz-adv-x="52" glyph-name="periodcentered" unicode="·" d="M14 103h23v-22h-23v22z"/>
<glyph horiz-adv-x="52" glyph-name="cedilla" unicode="¸" d="M31 12l-9 -16q5 2 11 2q16 0 16 -12q0 -19 -43 -19l-4 11q34 0 34 8q0 3 -5 3q-10 0 -13 -5l-11 1l12 27h12z"/>
<glyph horiz-adv-x="61" glyph-name="uni00B9" unicode="¹" d="M32 175h7v-70h-12v50h-15v7h5q6 0 10 4t5 9z"/>
<glyph horiz-adv-x="91" glyph-name="ordmasculine" unicode="º" d="M32 162q-8 -7 -8 -21t7 -21q5 -5 14 -5q8 0 13 5q7 7 7 21t-7 21q-5 5 -13 5q-7 0 -13 -5zM68 170q11 -10 11 -29t-12 -30q-9 -8 -22 -8t-22 8q-13 11 -13 30q0 18 12 29q9 8 23 8t23 -8z"/>
<glyph horiz-adv-x="171" glyph-name="guillemotright" unicode="»" d="M17 0l-10 10l82 82l-82 82l10 10l92 -92zM72 0l-10 10l82 82l-82 82l10 10l92 -92z"/>
<glyph horiz-adv-x="131" glyph-name="onequarter" unicode="¼" d="M22 5l76 172l7 -3l-76 -173zM30 177h10v-89h-16v68h-15v7h4q7 0 12 4q4 5 5 10zM99 69l-20 -34h20v34zM99 92h14v-57h9v-12h-9v-20h-14v20h-34v12z"/>
<glyph horiz-adv-x="131" glyph-name="onehalf" unicode="½" d="M98 177l7 -3l-76 -173l-7 4zM30 177h10v-89h-16v68h-15v7h4q7 0 12 4q4 5 5 10zM70 63q0 17 8 25q6 6 17 6q12 0 18 -6q7 -7 7 -17q0 -15 -8 -23q-23 -23 -28 -33h38v-12h-54v12q5 12 29 36q8 8 8 20q0 5 -3 8t-7 3t-7 -3q-4 -4 -4 -16h-14z"/>
<glyph horiz-adv-x="131" glyph-name="threequarters" unicode="¾" d="M98 177l7 -3l-76 -173l-7 4zM79 35h20v34zM113 92v-57h9v-12h-9v-20h-14v20h-34v12l34 57h14zM10 151q0 11 8 19q6 6 16 6q11 0 17 -6t6 -16q0 -14 -11 -19q13 -5 13 -19q0 -12 -7 -19q-8 -8 -20 -8q-9 0 -17 8q-6 6 -6 16v4h13v-4q0 -6 4 -10q2 -2 6 -2q6 0 9 3 q4 4 4 11q0 6 -3 9t-8 3h-5v12h4q3 0 6 3q4 4 4 12q0 5 -4 9q-2 2 -5 2q-4 0 -6 -2q-4 -4 -5 -12h-13z"/>
<glyph horiz-adv-x="116" glyph-name="questiondown" unicode="¿" d="M70 152h-22v24h22v-24zM106 58q0 -26 -17 -43q-12 -12 -32 -12q-22 0 -34 12q-13 13 -13 33q0 17 12 29l19 19q9 9 9 27h18q0 -22 -7 -33q-5 -8 -19 -22q-8 -8 -8 -19q0 -14 7 -21q6 -6 17 -6q9 0 15 6q10 10 10 30h23z"/>
<glyph horiz-adv-x="162" glyph-name="Agrave" unicode="À" d="M55 74h52l-26 67zM91 174l68 -171h-24l-21 52h-66l-21 -52h-24l68 171h20zM58 219l29 -35h-17l-42 35h30z"/>
<glyph horiz-adv-x="162" glyph-name="Aacute" unicode="Á" d="M55 74h52l-26 67zM91 174l68 -171h-24l-21 52h-66l-21 -52h-24l68 171h20zM127 219l-42 -35h-17l29 35h30z"/>
<glyph horiz-adv-x="162" glyph-name="Acircumflex" unicode="Â" d="M55 74h52l-26 67zM91 174l68 -171h-24l-21 52h-66l-21 -52h-24l68 171h20zM92 218l36 -36h-19l-29 20l-29 -20h-19l36 36h24z"/>
<glyph horiz-adv-x="162" glyph-name="Atilde" unicode="Ã" d="M55 74h52l-26 67zM91 174l68 -171h-24l-21 52h-66l-21 -52h-24l68 171h20zM137 204q-12 -20 -33 -20q-15 0 -22 7q-6 5 -19 5t-19 -14l-13 14q15 21 31 21t22 -6q9 -8 20 -8q12 0 19 16z"/>
<glyph horiz-adv-x="162" glyph-name="Adieresis" unicode="Ä" d="M55 74h52l-26 67zM91 174l68 -171h-24l-21 52h-66l-21 -52h-24l68 171h20zM69 209v-22h-23v22h23zM117 209v-22h-23v22h23z"/>
<glyph horiz-adv-x="162" glyph-name="Aring" unicode="Å" d="M81 137l-26 -63h52zM159 3h-24l-21 52h-66l-21 -52h-24l68 154h20zM81 163q-11 0 -18 7t-7 18t7 18t18 7t18 -7t7 -18t-7 -18t-18 -7zM99 188q0 8 -5 13t-13 5t-13 -5t-5 -13t5 -13t13 -5t13 5t5 13z"/>
<glyph horiz-adv-x="171" glyph-name="AE" unicode="Æ" d="M55 74h26v69zM158 155h-54v-53h48v-19h-48v-61h59v-19h-82v26v26h-33l-21 -52h-24l68 171h87v-19z"/>
<glyph horiz-adv-x="170" glyph-name="Ccedilla" unicode="Ç" d="M135 159q18 -18 19 -46h-24q-2 21 -13 32q-12 12 -29 12q-18 0 -32 -14q-18 -18 -18 -52q0 -38 18 -56q13 -13 32 -13q20 0 31 11q14 14 14 40h24q-1 -34 -20 -53q-13 -13 -37 -17q-6 -1 -11 -1l-5 -6q3 2 10 2q17 0 17 -12q0 -19 -47 -19l-4 11q37 0 37 8q0 3 -6 3 q-10 0 -14 -5l-12 1l12 18q-23 4 -38 19q-25 25 -25 69q0 41 25 66q19 19 49 19t47 -17z"/>
<glyph horiz-adv-x="145" glyph-name="Egrave" unicode="È" d="M17 174h110v-19h-87v-53h81v-19h-81v-61h92v-19h-115v171zM28 219h30l29 -35h-17z"/>
<glyph horiz-adv-x="145" glyph-name="Eacute" unicode="É" d="M17 174h110v-19h-87v-53h81v-19h-81v-61h92v-19h-115v171zM74 184h-17l29 35h30z"/>
<glyph horiz-adv-x="145" glyph-name="Ecircumflex" unicode="Ê" d="M127 155h-87v-53h81v-19h-81v-61h92v-19h-115v171h110v-19zM104 182l-29 20l-29 -20h-19l36 36h24l36 -36h-19z"/>
<glyph horiz-adv-x="145" glyph-name="Edieresis" unicode="Ë" d="M127 155h-87v-53h81v-19h-81v-61h92v-19h-115v171h110v-19zM85 209h23v-22h-23v22zM37 187v22h23v-22h-23z"/>
<glyph horiz-adv-x="86" glyph-name="Igrave" unicode="Ì" d="M49 182l-42 37h30l29 -37h-17zM54 152v-127h14v-22h-51v22h14v127h-14v22h51v-22h-14z"/>
<glyph horiz-adv-x="74" glyph-name="Iacute" unicode="Í" d="M24 184h-17l29 35h30zM48 152v-127h14v-22h-51v22h14v127h-14v22h51v-22h-14z"/>
<glyph horiz-adv-x="111" glyph-name="Icircumflex" unicode="Î" d="M84 182l-29 20l-29 -20h-19l36 36h24l36 -36h-19zM66 152v-127h14v-22h-51v22h14v127h-14v22h51v-22h-14z"/>
<glyph horiz-adv-x="86" glyph-name="Idieresis" unicode="Ï" d="M7 187v22h23v-22h-23zM55 187v22h23v-22h-23zM54 152v-127h14v-22h-51v22h14v127h-14v22h51v-22h-14z"/>
<glyph horiz-adv-x="166" glyph-name="Eth" unicode="Ð" d="M47 155v-47h42v-19h-42v-67h36q19 0 31 12q19 19 19 53q0 36 -18 54q-14 14 -32 14h-36zM24 174h60q30 0 51 -21q22 -22 22 -66q0 -42 -23 -65q-19 -19 -50 -19h-60v86h-17v19h17v66z"/>
<glyph horiz-adv-x="164" glyph-name="Ntilde" unicode="Ñ" d="M18 174h25l80 -135v135h23v-171h-25l-80 135v-135h-23v171zM137 204q-12 -20 -33 -20q-15 0 -22 7q-6 5 -19 5t-19 -14l-13 14q15 21 31 21t22 -6q9 -8 20 -8q12 0 19 16z"/>
<glyph horiz-adv-x="171" glyph-name="Ograve" unicode="Ò" d="M70 219l29 -35h-17l-42 35h30zM56 144q-17 -17 -17 -55q0 -39 17 -56q13 -13 29 -13t29 13q17 17 17 56q0 38 -17 55q-13 13 -29 13t-29 -13zM131 157q24 -24 24 -68q0 -45 -24 -69q-19 -19 -46 -19t-46 19q-24 24 -24 69q0 44 24 68q19 19 46 19t46 -19z"/>
<glyph horiz-adv-x="171" glyph-name="Oacute" unicode="Ó" d="M119 219l-42 -35h-17l29 35h30zM56 144q-17 -17 -17 -55q0 -39 17 -56q13 -13 29 -13t29 13q17 17 17 56q0 38 -17 55q-13 13 -29 13t-29 -13zM131 157q24 -24 24 -68q0 -45 -24 -69q-19 -19 -46 -19t-46 19q-24 24 -24 69q0 44 24 68q19 19 46 19t46 -19z"/>
<glyph horiz-adv-x="171" glyph-name="Ocircumflex" unicode="Ô" d="M94 218l36 -36h-19l-29 20l-29 -20h-19l36 36h24zM56 144q-17 -17 -17 -55q0 -39 17 -56q13 -13 29 -13t29 13q17 17 17 56q0 38 -17 55q-13 13 -29 13t-29 -13zM131 157q24 -24 24 -68q0 -45 -24 -69q-19 -19 -46 -19t-46 19q-24 24 -24 69q0 44 24 68q19 19 46 19 t46 -19z"/>
<glyph horiz-adv-x="171" glyph-name="Otilde" unicode="Õ" d="M138 204q-12 -20 -33 -20q-15 0 -22 7q-6 5 -19 5t-19 -14l-13 14q15 21 31 21t22 -6q9 -8 20 -8q12 0 19 16zM56 144q-17 -17 -17 -55q0 -39 17 -56q13 -13 29 -13t29 13q17 17 17 56q0 38 -17 55q-13 13 -29 13t-29 -13zM131 157q24 -24 24 -68q0 -45 -24 -69 q-19 -19 -46 -19t-46 19q-24 24 -24 69q0 44 24 68q19 19 46 19t46 -19z"/>
<glyph horiz-adv-x="171" glyph-name="Odieresis" unicode="Ö" d="M70 209v-22h-23v22h23zM118 209v-22h-23v22h23zM56 144q-17 -17 -17 -55q0 -39 17 -56q13 -13 29 -13t29 13q17 17 17 56q0 38 -17 55q-13 13 -29 13t-29 -13zM131 157q24 -24 24 -68q0 -45 -24 -69q-19 -19 -46 -19t-46 19q-24 24 -24 69q0 44 24 68q19 19 46 19t46 -19 z"/>
<glyph horiz-adv-x="256" glyph-name="multiply" unicode="×" d="M63 142l14 15l51 -51l51 51l15 -15l-51 -51l51 -51l-14 -15l-51 51l-54 -54l-14 16l53 53z"/>
<glyph horiz-adv-x="171" glyph-name="Oslash" unicode="Ø" d="M56 145q-17 -17 -17 -56q0 -30 12 -51l53 114q-10 5 -19 5q-17 0 -29 -12zM134 181l-10 -18q31 -29 31 -74q0 -46 -24 -70q-18 -18 -46 -18q-17 0 -36 10l-10 -20l-10 6l11 22q-25 25 -25 70t24 69q18 18 46 18q14 0 29 -7l10 18zM59 30q12 -10 26 -10q17 0 29 12 q17 17 17 57q0 39 -18 56z"/>
<glyph horiz-adv-x="164" glyph-name="Ugrave" unicode="Ù" d="M14 174h23v-120q0 -14 9 -23q11 -11 32 -11t32 11q9 9 9 23v120h23v-121q0 -22 -14 -36q-16 -16 -50 -16t-50 16q-14 14 -14 36v121zM80 184l-42 35h30l29 -35h-17z"/>
<glyph horiz-adv-x="164" glyph-name="Uacute" unicode="Ú" d="M14 174h23v-120q0 -14 9 -23q11 -11 32 -11t32 11q9 9 9 23v120h23v-121q0 -22 -14 -36q-16 -16 -50 -16t-50 16q-14 14 -14 36v121zM74 184h-17l29 35h30z"/>
<glyph horiz-adv-x="164" glyph-name="Ucircumflex" unicode="Û" d="M14 174h23v-120q0 -14 9 -23q11 -11 32 -11t32 11q9 9 9 23v120h23v-121q0 -22 -14 -36q-16 -16 -50 -16t-50 16q-14 14 -14 36v121zM107 182l-29 20l-29 -20h-19l36 36h24l36 -36h-19z"/>
<glyph horiz-adv-x="164" glyph-name="Udieresis" unicode="Ü" d="M14 174h23v-120q0 -14 9 -23q11 -11 32 -11t32 11q9 9 9 23v120h23v-121q0 -22 -14 -36q-16 -16 -50 -16t-50 16q-14 14 -14 36v121zM43 187v22h23v-22h-23zM91 187v22h23v-22h-23z"/>
<glyph horiz-adv-x="151" glyph-name="Yacute" unicode="Ý" d="M2 174h24l49 -78l49 78h24l-61 -95v-76h-23v76zM78 184h-17l29 35h30z"/>
<glyph horiz-adv-x="139" glyph-name="Thorn" unicode="Þ" d="M39 122v-60h35q14 0 22 8q9 9 9 21q0 14 -8 22q-9 9 -23 9h-35zM16 174h23v-33h40q22 0 36 -14t14 -36t-13 -35t-37 -13h-40v-40h-23v171z"/>
<glyph horiz-adv-x="139" glyph-name="germandbls" unicode="ß" d="M107 163q12 -12 12 -28q0 -19 -10 -29q-7 -7 -14 -9q15 -5 24 -14q12 -12 12 -31q0 -22 -15 -37q-14 -14 -39 -14q-21 0 -34 11l9 20q11 -10 25 -10q13 0 21 8q9 9 9 22q0 14 -8 22q-13 13 -24 13h-10v19h10q7 0 14 7t7 21q0 10 -7 17q-6 6 -23 6q-29 0 -29 -23v-131h-23 v131q0 42 53 42q27 0 40 -13z"/>
<glyph horiz-adv-x="122" glyph-name="agrave" unicode="à" d="M85 60q-6 -2 -11 -3q-17 -4 -26 -6q-8 -2 -12 -6q-5 -5 -5 -11q0 -7 5 -12q3 -3 13 -3q17 0 28 11q7 7 8 10v20zM27 106q11 11 32 11q25 0 36 -11q10 -10 10 -23v-63q0 -11 8 -17h-24q-4 4 -4 13q-15 -15 -38 -15q-19 0 -29 10q-9 9 -9 21q0 14 9 23q10 10 28 13 q12 2 21 5q13 3 18 6q0 8 -6 14t-17 6q-14 0 -20 -6q-4 -4 -6 -11h-22q3 14 13 24zM70 125l-42 35h30l29 -35h-17z"/>
<glyph horiz-adv-x="122" glyph-name="aacute" unicode="á" d="M85 60q-6 -2 -11 -3q-17 -4 -26 -6q-8 -2 -12 -6q-5 -5 -5 -11q0 -7 5 -12q3 -3 13 -3q17 0 28 11q7 7 8 10v20zM27 106q11 11 32 11q25 0 36 -11q10 -10 10 -23v-63q0 -11 8 -17h-24q-4 4 -4 13q-15 -15 -38 -15q-19 0 -29 10q-9 9 -9 21q0 14 9 23q10 10 28 13 q12 2 21 5q13 3 18 6q0 8 -6 14t-17 6q-14 0 -20 -6q-4 -4 -6 -11h-22q3 14 13 24zM62 125h-17l29 35h30z"/>
<glyph horiz-adv-x="122" glyph-name="acircumflex" unicode="â" d="M85 60q-6 -2 -11 -3q-17 -4 -26 -6q-8 -2 -12 -6q-5 -5 -5 -11q0 -7 5 -12q3 -3 13 -3q17 0 28 11q7 7 8 10v20zM27 106q11 11 32 11q25 0 36 -11q10 -10 10 -23v-63q0 -11 8 -17h-24q-4 4 -4 13q-15 -15 -38 -15q-19 0 -29 10q-9 9 -9 21q0 14 9 23q10 10 28 13 q12 2 21 5q13 3 18 6q0 8 -6 14t-17 6q-14 0 -20 -6q-4 -4 -6 -11h-22q3 14 13 24zM92 125l-29 20l-29 -20h-19l36 36h24l36 -36h-19z"/>
<glyph horiz-adv-x="122" glyph-name="atilde" unicode="ã" d="M85 60q-6 -2 -11 -3q-17 -4 -26 -6q-8 -2 -12 -6q-5 -5 -5 -11q0 -7 5 -12q3 -3 13 -3q17 0 28 11q7 7 8 10v20zM27 106q11 11 32 11q25 0 36 -11q10 -10 10 -23v-63q0 -11 8 -17h-24q-4 4 -4 13q-15 -15 -38 -15q-19 0 -29 10q-9 9 -9 21q0 14 9 23q10 10 28 13 q12 2 21 5q13 3 18 6q0 8 -6 14t-17 6q-14 0 -20 -6q-4 -4 -6 -11h-22q3 14 13 24zM105 148q-10 -18 -28 -18q-9 0 -22 8q-5 3 -12 3q-9 0 -17 -13l-11 13q13 18 27 18q9 0 16 -4q13 -7 19 -7q10 0 16 13z"/>
<glyph horiz-adv-x="122" glyph-name="adieresis" unicode="ä" d="M85 60q-6 -2 -11 -3q-17 -4 -26 -6q-8 -2 -12 -6q-5 -5 -5 -11q0 -7 5 -12q3 -3 13 -3q17 0 28 11q7 7 8 10v20zM27 106q11 11 32 11q25 0 36 -11q10 -10 10 -23v-63q0 -11 8 -17h-24q-4 4 -4 13q-15 -15 -38 -15q-19 0 -29 10q-9 9 -9 21q0 14 9 23q10 10 28 13 q12 2 21 5q13 3 18 6q0 8 -6 14t-17 6q-14 0 -20 -6q-4 -4 -6 -11h-22q3 14 13 24zM29 131v22h23v-22h-23zM77 131v22h23v-22h-23z"/>
<glyph horiz-adv-x="122" glyph-name="aring" unicode="å" d="M85 60q-6 -2 -11 -3q-17 -4 -26 -6q-8 -2 -12 -6q-5 -5 -5 -11q0 -7 5 -12q3 -3 13 -3q17 0 28 11q7 7 8 10v20zM27 106q11 11 32 11q25 0 36 -11q10 -10 10 -23v-63q0 -11 8 -17h-24q-4 4 -4 13q-15 -15 -38 -15q-19 0 -29 10q-9 9 -9 21q0 14 9 23q10 10 28 13 q12 2 21 5q13 3 18 6q0 8 -6 14t-17 6q-14 0 -20 -6q-4 -4 -6 -11h-22q3 14 13 24zM75 162q-5 5 -13 5t-13 -5t-5 -13t5 -13t13 -5t13 5t5 13t-5 13zM80 131q-7 -7 -18 -7t-18 7t-7 18t7 18t18 7t18 -7t7 -18t-7 -18z"/>
<glyph horiz-adv-x="171" glyph-name="ae" unicode="æ" d="M74 60q-17 -5 -31 -9q-7 -2 -10 -6q-4 -5 -4 -11q0 -7 4 -12q3 -3 11 -3q15 0 24 11q5 6 6 10v20zM101 92q-6 -7 -8 -17h48q0 10 -7 18q-6 7 -17 7q-9 0 -16 -8zM80 22q-12 -21 -38 -21q-19 0 -27 10q-7 8 -7 21q0 15 7 23t27 13q18 4 32 10q0 9 -5 15t-14 6 q-11 0 -16 -6q-4 -6 -6 -11h-21q2 12 12 24q9 11 29 11q22 0 33 -16q13 16 32 16q21 0 33 -15t12 -43h-71q0 -21 9 -31q8 -9 18 -9q13 0 18 6t5 16h22q-4 -19 -11 -27q-11 -13 -34 -13q-28 0 -39 21z"/>
<glyph glyph-name="ccedilla" unicode="ç" d="M101 105q11 -11 13 -27h-22q-1 8 -8 15q-6 6 -18 6t-20 -8q-12 -12 -12 -33q0 -19 11 -30q8 -8 20 -8q14 0 22 8t8 21h22q-1 -21 -14 -34t-31 -14l-6 -9q2 1 8 1q14 0 14 -10q0 -16 -40 -16l-3 9q31 0 31 7q0 2 -5 2q-8 0 -12 -4l-10 1l11 20q-18 2 -30 14q-18 18 -18 43 q0 27 16 43q15 15 37 15q24 0 36 -12z"/>
<glyph glyph-name="egrave" unicode="è" d="M44 92q-7 -7 -9 -17h57q0 10 -8 18q-7 7 -20 7q-12 0 -20 -8zM29 103q14 14 36 14q21 0 36 -15q14 -14 14 -43h-81q0 -21 10 -31q9 -9 23 -9t20 6q7 7 7 16h22q-4 -18 -13 -27q-13 -13 -36 -13q-24 0 -39 15q-16 16 -16 43t17 44zM73 125l-42 35h30l29 -35h-17z"/>
<glyph glyph-name="eacute" unicode="é" d="M44 92q-7 -7 -9 -17h57q0 10 -8 18q-7 7 -20 7q-12 0 -20 -8zM29 103q14 14 36 14q21 0 36 -15q14 -14 14 -43h-81q0 -21 10 -31q9 -9 23 -9t20 6q7 7 7 16h22q-4 -18 -13 -27q-13 -13 -36 -13q-24 0 -39 15q-16 16 -16 43t17 44zM62 125h-17l29 35h30z"/>
<glyph glyph-name="ecircumflex" unicode="ê" d="M44 92q-7 -7 -9 -17h57q0 10 -8 18q-7 7 -20 7q-12 0 -20 -8zM29 103q14 14 36 14q21 0 36 -15q14 -14 14 -43h-81q0 -21 10 -31q9 -9 23 -9t20 6q7 7 7 16h22q-4 -18 -13 -27q-13 -13 -36 -13q-24 0 -39 15q-16 16 -16 43t17 44zM94 125l-29 20l-29 -20h-19l36 36h24 l36 -36h-19z"/>
<glyph glyph-name="edieresis" unicode="ë" d="M44 92q-7 -7 -9 -17h57q0 10 -8 18q-7 7 -20 7q-12 0 -20 -8zM29 103q14 14 36 14q21 0 36 -15q14 -14 14 -43h-81q0 -21 10 -31q9 -9 23 -9t20 6q7 7 7 16h22q-4 -18 -13 -27q-13 -13 -36 -13q-24 0 -39 15q-16 16 -16 43t17 44zM79 153h23v-22h-23v22zM31 131v22h23 v-22h-23z"/>
<glyph horiz-adv-x="75" glyph-name="igrave" unicode="ì" d="M28 115h20v-112h-20v112zM49 125l-42 35h30l29 -35h-17z"/>
<glyph horiz-adv-x="75" glyph-name="iacute" unicode="í" d="M20 115h20v-112h-20v112zM27 125h-17l29 35h30z"/>
<glyph horiz-adv-x="111" glyph-name="icircumflex" unicode="î" d="M44 115h20v-112h-20v112zM84 124l-29 20l-29 -20h-19l36 36h24l36 -36h-19z"/>
<glyph horiz-adv-x="92" glyph-name="idieresis" unicode="ï" d="M35 115h20v-112h-20v112zM58 153h23v-22h-23v22zM10 131v22h23v-22h-23z"/>
<glyph horiz-adv-x="131" glyph-name="eth" unicode="ð" d="M77 26q12 12 12 36q0 19 -11 30q-7 7 -17 7q-7 0 -14 -7q-9 -9 -9 -32q0 -26 9 -35q6 -6 15 -6q8 0 15 7zM30 13q-16 16 -16 47q0 30 15 45q12 12 30 12q13 0 22 -9q6 -6 10 -13q0 26 -19 46l-41 -19l-6 13l34 15q-6 4 -17 7l10 18q17 -5 29 -14l27 14l8 -12l-25 -12 q23 -27 23 -66q0 -51 -18 -69q-15 -15 -33 -15q-21 0 -33 12z"/>
<glyph glyph-name="ntilde" unicode="ñ" d="M35 3h-20v112h20v-20q18 22 38 22t32 -12q8 -8 8 -19v-83h-20v77q0 9 -6 15t-17 6q-10 0 -20 -10q-15 -15 -15 -32v-56zM110 148q-10 -18 -28 -18q-9 0 -22 8q-5 3 -12 3q-9 0 -17 -13l-11 13q13 18 27 18q9 0 16 -4q13 -7 19 -7q10 0 16 13z"/>
<glyph horiz-adv-x="130" glyph-name="ograve" unicode="ò" d="M45 91q-12 -12 -12 -32t11 -31q9 -9 21 -9t21 9q11 11 11 31t-12 32q-8 8 -20 8t-20 -8zM28 102q15 15 37 15t37 -15q17 -17 17 -43t-17 -43q-15 -15 -37 -15t-37 15q-17 17 -17 43t17 43zM72 125l-42 35h30l29 -35h-17z"/>
<glyph horiz-adv-x="130" glyph-name="oacute" unicode="ó" d="M45 91q-12 -12 -12 -32t11 -31q9 -9 21 -9t21 9q11 11 11 31t-12 32q-8 8 -20 8t-20 -8zM28 102q15 15 37 15t37 -15q17 -17 17 -43t-17 -43q-15 -15 -37 -15t-37 15q-17 17 -17 43t17 43zM62 125h-17l29 35h30z"/>
<glyph horiz-adv-x="130" glyph-name="ocircumflex" unicode="ô" d="M45 91q-12 -12 -12 -32t11 -31q9 -9 21 -9t21 9q11 11 11 31t-12 32q-8 8 -20 8t-20 -8zM28 102q15 15 37 15t37 -15q17 -17 17 -43t-17 -43q-15 -15 -37 -15t-37 15q-17 17 -17 43t17 43zM94 125l-29 20l-29 -20h-19l36 36h24l36 -36h-19z"/>
<glyph horiz-adv-x="130" glyph-name="otilde" unicode="õ" d="M45 91q-12 -12 -12 -32t11 -31q9 -9 21 -9t21 9q11 11 11 31t-12 32q-8 8 -20 8t-20 -8zM28 102q15 15 37 15t37 -15q17 -17 17 -43t-17 -43q-15 -15 -37 -15t-37 15q-17 17 -17 43t17 43zM109 148q-10 -18 -28 -18q-9 0 -22 8q-5 3 -12 3q-9 0 -17 -13l-11 13 q13 18 27 18q9 0 16 -4q13 -7 19 -7q10 0 16 13z"/>
<glyph horiz-adv-x="130" glyph-name="odieresis" unicode="ö" d="M45 91q-12 -12 -12 -32t11 -31q9 -9 21 -9t21 9q11 11 11 31t-12 32q-8 8 -20 8t-20 -8zM28 102q15 15 37 15t37 -15q17 -17 17 -43t-17 -43q-15 -15 -37 -15t-37 15q-17 17 -17 43t17 43zM77 153h23v-22h-23v22zM29 131v22h23v-22h-23z"/>
<glyph horiz-adv-x="256" glyph-name="divide" unicode="÷" d="M111 40h33v-33h-33v33zM35 101h185v-19h-185v19zM111 176h33v-33h-33v33z"/>
<glyph horiz-adv-x="130" glyph-name="oslash" unicode="ø" d="M8 9l14 15q-11 14 -11 35q0 26 17 43q15 15 37 15q20 0 32 -10l11 12l8 -8l-11 -12q14 -14 14 -40t-17 -43q-15 -15 -37 -15t-36 14l-13 -14zM36 40l47 53q-7 6 -18 6q-12 0 -20 -8q-12 -12 -12 -32q0 -10 3 -19zM42 30q11 -11 23 -11t21 9q11 11 11 31q0 18 -7 25z"/>
<glyph glyph-name="ugrave" unicode="ù" d="M15 115h20v-75q0 -12 6 -18q5 -5 14 -5q13 0 23 10q15 15 15 31v57h20v-112h-20v20q-16 -22 -39 -22q-21 0 -30 9t-9 23v82zM70 125l-42 35h30l29 -35h-17z"/>
<glyph glyph-name="uacute" unicode="ú" d="M15 115h20v-75q0 -12 6 -18q5 -5 14 -5q13 0 23 10q15 15 15 31v57h20v-112h-20v20q-16 -22 -39 -22q-21 0 -30 9t-9 23v82zM62 125h-17l29 35h30z"/>
<glyph glyph-name="ucircumflex" unicode="û" d="M15 115h20v-75q0 -12 6 -18q5 -5 14 -5q13 0 23 10q15 15 15 31v57h20v-112h-20v20q-16 -22 -39 -22q-21 0 -30 9t-9 23v82zM93 125l-29 20l-29 -20h-19l36 36h24l36 -36h-19z"/>
<glyph glyph-name="udieresis" unicode="ü" d="M15 115h20v-75q0 -12 6 -18q5 -5 14 -5q13 0 23 10q15 15 15 31v57h20v-112h-20v20q-16 -22 -39 -22q-21 0 -30 9t-9 23v82zM77 153h23v-22h-23v22zM29 131v22h23v-22h-23z"/>
<glyph horiz-adv-x="122" glyph-name="yacute" unicode="ý" d="M24 115l36 -88l36 88h22l-50 -119q-6 -15 -12 -21q-8 -8 -20 -8q-14 0 -18 4v19q8 -4 17 -4q5 0 9 4t6 11l-48 114h22zM104 160l-42 -35h-17l29 35h30z"/>
<glyph horiz-adv-x="127" glyph-name="thorn" unicode="þ" d="M43 90q-10 -10 -10 -24v-13q0 -14 11 -25q9 -9 20 -9q10 0 17 7q11 11 11 33t-10 32q-8 8 -18 8q-12 0 -21 -9zM33 174v-72q12 15 31 15q21 0 34 -13q16 -16 16 -45t-16 -45q-13 -13 -34 -13t-31 16v-50h-20v207h20z"/>
</font>
</defs>
</svg>
